<svg width="118" height="24" viewBox="0 0 118 24" fill="none" xmlns="http://www.w3.org/2000/svg">
<g clip-path="url(#clip0)">
<path d="M59.5703 19.1821L54.0576 11.7759L59.3921 5.62007H55.036L49.9685 11.6868V0.445984H46.4116V19.1821H49.9677V15.7027L51.5679 14.0072L55.127 19.1821H59.5703Z" fill="#141414"/>
<path d="M61.9707 4.2822C62.5343 4.27445 63.0726 4.04634 63.4712 3.6464C63.8698 3.24646 64.0971 2.70625 64.1048 2.1407C64.0969 1.57529 63.8695 1.03528 63.4709 0.635511C63.0724 0.235739 62.5342 0.00774002 61.9707 -8.3007e-07C61.6894 -0.00370748 61.4103 0.0491522 61.1497 0.15546C60.8891 0.261767 60.6523 0.41937 60.4534 0.618969C60.2545 0.818568 60.0975 1.05612 59.9915 1.31761C59.8856 1.57911 59.8329 1.85924 59.8366 2.14149C59.833 2.42368 59.8858 2.70373 59.9918 2.96513C60.0977 3.22653 60.2548 3.46399 60.4537 3.6635C60.6526 3.86302 60.8893 4.02055 61.1499 4.12681C61.4104 4.23307 61.6895 4.2859 61.9707 4.2822Z" fill="#141414"/>
<path d="M63.5709 19.3601V5.79889H60.1035V19.3601H63.5709Z" fill="#141414"/>
<path d="M83.664 19.1821H80.1079V0.445984H83.664V7.40465C84.1596 6.76709 84.7936 6.25124 85.5176 5.89629C86.2417 5.54134 87.0368 5.35661 87.8426 5.35613C91.2189 5.35613 93.7998 8.03497 93.7998 12.4937C93.7998 17.0437 91.2213 19.6312 87.8426 19.6312C87.0368 19.6307 86.2417 19.446 85.5176 19.091C84.7936 18.7361 84.1596 18.2202 83.664 17.5826V19.1821ZM83.664 14.8101C84.021 15.2755 84.4784 15.6538 85.002 15.9165C85.5255 16.1792 86.1016 16.3194 86.6869 16.3267C88.7283 16.3267 90.0631 14.721 90.0631 12.4015C90.0631 10.0819 88.7283 8.47619 86.6869 8.47619C86.0955 8.50014 85.5169 8.65682 84.9938 8.9347C84.4706 9.21258 84.0162 9.6046 83.664 10.0819V14.8101ZM114.341 19.7171C111.852 19.7171 110.518 18.4682 110.518 15.9698V8.92213H108.296V5.79893H110.518V2.05171H114.075V5.79893H116.83V8.92134H114.075V15.0772C114.051 15.2598 114.064 15.4454 114.115 15.6226C114.165 15.7997 114.251 15.9646 114.368 16.1071C114.484 16.2496 114.628 16.3666 114.792 16.451C114.955 16.5354 115.133 16.5853 115.317 16.5978C115.759 16.6152 116.195 16.4901 116.561 16.2409L117.273 18.9197C116.401 19.4821 115.377 19.7605 114.341 19.7171Z" fill="#141414"/>
<path d="M75.3961 18.2011C74.5958 18.7166 73.6974 19.0595 72.758 19.2082C71.8187 19.3568 70.8588 19.308 69.9392 19.0647C69.0197 18.8214 68.1605 18.389 67.4163 17.7949C66.6721 17.2009 66.059 16.4581 65.6159 15.6137C65.126 14.8232 64.8012 13.941 64.6613 13.0207C64.5214 12.1004 64.5693 11.1612 64.8022 10.2601C65.035 9.35895 65.4479 8.5147 66.0158 7.77856C66.5837 7.04242 67.2947 6.42975 68.1057 5.97774C71.5731 4.0151 75.3961 5.26391 77.6189 9.10016L77.9746 9.81399L69.3502 14.8108C69.9112 15.5429 70.7289 16.0332 71.6371 16.1823C72.5453 16.3315 73.476 16.1281 74.2403 15.6137C75.378 14.9666 76.234 13.9166 76.6406 12.6693L79.1304 13.9181C78.6883 15.5246 77.1745 17.1304 75.3961 18.2011ZM73.8846 9.36883C73.6657 9.0141 73.3784 8.70677 73.0396 8.46481C72.7008 8.22286 72.3173 8.05115 71.9116 7.95973C71.5059 7.86831 71.0861 7.85902 70.6767 7.93241C70.2674 8.00579 69.8768 8.16038 69.5277 8.38712C68.804 8.7965 68.2631 9.46732 68.0151 10.2629C67.7671 11.0585 67.8307 11.9191 68.1929 12.6693L73.8846 9.36883Z" fill="#141414"/>
<path d="M20.1789 4.28221C18.6012 2.52937 16.5287 1.30045 14.2375 0.75911C11.9463 0.21777 9.54517 0.389699 7.3538 1.252C5.16242 2.1143 3.28484 3.62606 1.97109 5.58593C0.657343 7.54581 -0.030216 9.86079 -2.31424e-05 12.2226C-0.011522 13.7649 0.281238 15.2942 0.861389 16.7225C1.44154 18.1507 2.29761 19.4496 3.38028 20.5444C4.46294 21.6392 5.75079 22.5081 7.16963 23.1012C8.58846 23.6943 10.1102 23.9997 11.6472 24C13.2702 23.989 14.8736 23.6427 16.3573 22.9827C17.8411 22.3227 19.1735 21.3631 20.2716 20.1638C19.0375 19.5331 17.9474 18.652 17.0704 17.5763C16.3892 18.3118 15.5635 18.8976 14.6454 19.2969C13.7272 19.6961 12.7366 19.9001 11.736 19.8959C10.5118 19.8928 9.30707 19.5878 8.22793 19.0077C7.1488 18.4277 6.22831 17.5903 5.54749 16.5693C4.86667 15.5484 4.4464 14.3751 4.32366 13.1529C4.20092 11.9306 4.37948 10.6968 4.84362 9.56005C5.30777 8.42331 6.04326 7.41849 6.98537 6.63404C7.92748 5.84958 9.04731 5.30954 10.2463 5.06145C11.4453 4.81336 12.6867 4.86483 13.8612 5.21133C15.0357 5.55783 16.1073 6.18873 16.9817 7.0485C17.8048 5.87687 18.9029 4.92677 20.1789 4.28221Z" fill="#141414"/>
<path d="M23.9171 19.3609C22.5064 19.3787 21.1223 18.9752 19.9407 18.2017C18.7592 17.4282 17.8335 16.3197 17.2813 15.0169C16.7292 13.7142 16.5755 12.2761 16.8399 10.8856C17.1042 9.49497 17.7747 8.21467 18.7659 7.20738C19.7572 6.2001 21.0246 5.51133 22.407 5.22862C23.7893 4.94592 25.2242 5.08205 26.5293 5.61972C27.8344 6.15738 28.9506 7.07229 29.7362 8.24815C30.5218 9.42401 30.9413 10.8077 30.9412 12.2234C30.9485 13.1552 30.7724 14.0794 30.423 14.9428C30.0737 15.8062 29.558 16.592 28.9054 17.2551C28.2529 17.9181 27.4764 18.4455 26.6204 18.8068C25.7644 19.1682 24.8457 19.3565 23.9171 19.3609ZM23.9171 15.973C24.6556 15.973 25.3776 15.7532 25.9917 15.3414C26.6058 14.9297 27.0844 14.3444 27.3671 13.6597C27.6497 12.975 27.7237 12.2216 27.5796 11.4947C27.4355 10.7678 27.0798 10.1001 26.5576 9.57605C26.0353 9.052 25.37 8.69511 24.6456 8.55052C23.9212 8.40593 23.1704 8.48014 22.488 8.76376C21.8057 9.04738 21.2224 9.52767 20.8121 10.1439C20.4018 10.7601 20.1828 11.4846 20.1828 12.2257C20.1894 13.2173 20.585 14.1663 21.2839 14.8673C21.9829 15.5682 22.9289 15.9646 23.9171 15.9706V15.973ZM38.6783 19.3609C37.2677 19.3787 35.8836 18.9752 34.702 18.2017C33.5204 17.4282 32.5947 16.3197 32.0426 15.0169C31.4904 13.7142 31.3368 12.2761 31.6011 10.8856C31.8655 9.49497 32.5359 8.21467 33.5272 7.20738C34.5185 6.2001 35.7859 5.51133 37.1682 5.22862C38.5506 4.94592 39.9855 5.08205 41.2906 5.61972C42.5956 6.15738 43.7119 7.07229 44.4975 8.24815C45.2831 9.42401 45.7025 10.8077 45.7025 12.2234C45.7097 13.1554 45.5335 14.0797 45.1841 14.9433C44.8346 15.8069 44.3186 16.5928 43.6659 17.2559C43.0131 17.919 42.2363 18.4463 41.38 18.8075C40.5237 19.1687 39.6048 19.3568 38.676 19.3609H38.6783ZM38.6783 15.973C39.4169 15.973 40.1389 15.7532 40.753 15.3414C41.3671 14.9297 41.8457 14.3444 42.1283 13.6597C42.411 12.975 42.4849 12.2216 42.3408 11.4947C42.1968 10.7678 41.8411 10.1001 41.3189 9.57605C40.7966 9.052 40.1312 8.69511 39.4068 8.55052C38.6825 8.40593 37.9316 8.48014 37.2493 8.76376C36.5669 9.04738 35.9837 9.52767 35.5734 10.1439C35.163 10.7601 34.944 11.4846 34.944 12.2257C34.9506 13.2169 35.3459 14.1656 36.0444 14.8664C36.7428 15.5673 37.6882 15.964 38.676 15.9706L38.6783 15.973Z" fill="#141414"/>
<path d="M101.536 19.3609C100.126 19.3787 98.7414 18.9752 97.5599 18.2017C96.3783 17.4282 95.4526 16.3197 94.9005 15.0169C94.3483 13.7142 94.1947 12.2761 94.459 10.8856C94.7234 9.49497 95.3938 8.21467 96.3851 7.20738C97.3764 6.2001 98.6437 5.51133 100.026 5.22862C101.408 4.94592 102.843 5.08205 104.148 5.61972C105.453 6.15738 106.57 7.07229 107.355 8.24815C108.141 9.42401 108.56 10.8077 108.56 12.2234C108.568 13.1552 108.391 14.0794 108.042 14.9428C107.693 15.8062 107.177 16.592 106.525 17.2551C105.872 17.9181 105.096 18.4455 104.24 18.8068C103.384 19.1682 102.465 19.3565 101.536 19.3609ZM101.625 15.973C102.363 15.973 103.085 15.7532 103.7 15.3414C104.314 14.9297 104.792 14.3444 105.075 13.6597C105.358 12.975 105.432 12.2216 105.287 11.4947C105.143 10.7678 104.788 10.1001 104.265 9.57605C103.743 9.052 103.078 8.69511 102.353 8.55052C101.629 8.40593 100.878 8.48014 100.196 8.76376C99.5135 9.04738 98.9303 9.52767 98.52 10.1439C98.1096 10.7601 97.8906 11.4846 97.8906 12.2257C97.8972 13.2173 98.2928 14.1663 98.9918 14.8673C99.6908 15.5682 100.637 15.9646 101.625 15.9706V15.973Z" fill="#141414"/>
</g>
<defs>
<clipPath id="clip0">
<rect width="117.273" height="24" fill="white"/>
</clipPath>
</defs>
</svg>
